<svg xmlns="http://www.w3.org/2000/svg" width="250" height="250" fill="none" viewBox="0 0 250 250">
<!-- SVG created with Arrow, by QuiverAI (https://quiver.ai) -->
  <path d="m239.2 234.5h-18.84v-106.1h18.57c2.86 0 3.84-1.6 3.84-3.33 0-1.78-0.95-3-2.66-3.81l-44.91-19.74v-29.34h18.27c2.94 0 3.23-2.68 3.23-3.49 0-1.62-0.87-2.53-2.46-3.4l-79.23-43.96v-9.62c0-2.21-1.2-3.24-3.28-3.24h-13.57c-2.27 0-3.13 1.2-3.13 3.18v9.28l-80.77 44.5c-1.56 0.93-1.99 2.11-1.99 3.49 0 1.6 0.98 3.26 3.47 3.26h18.27v29.34l-43.71 19.79c-1.92 0.93-2.57 2.13-2.57 3.76 0 1.7 0.98 3.33 3.28 3.33h17.93v106.1h-18.15c-2.64 0-3.34 1.84-3.34 3.32 0 2.04 1.31 3.13 3.28 3.13h228.3c2.02 0 3.3-1.2 3.3-3.18 0-1.6-0.98-3.27-3.14-3.27zm-50.47-134.2h-7.03v-27.86h7.03v27.86zm-138.5-34.89 68.44-38.4c1.28-0.81 2.09-1.5 2.09-3.48v-8.83h7.48v9.06c0 1.72 0.54 2.58 2.05 3.45l69.27 38.09v0.42h-19.07l-54.02-31.92c-1.3-0.75-1.84-1.03-2.7-1.03h-0.06c-0.98 0-1.4 0.23-2.83 1.08l-52.44 31.87h-18.21v-0.31zm116.1 0v0.31h-82.83v-0.31l41.16-25.05 41.67 25.05zm7.67 7.03v27.86h-99.13v-27.86h99.13zm-113.5 0h7.36v27.86h-7.36v-27.86zm-16.64 161.8h-8.16v-105.8h8.16v105.8zm154.4 0h-147.6v-105.8h32.33c2.75 0 3.12-2.15 3.12-3.33 0-1.83-1.33-3.2-3.15-3.2l-56.53-0.45v-0.39l31.23-13.63h133.6l31.65 13.8v0.42h-56c-2.21 0-3.41 1.84-3.41 3.45 0 1.98 1.48 3.33 3.21 3.33h31.56v105.8zm14.51 0.28h-7.03v-105.8h7.03v105.8z" fill="url(#paint0_radial_102_2313)"/>
  <path d="m154.2 151.1-28.03-16.5c-1.09-0.63-2.4-0.66-3.5 0l-27.23 16.47c-1.15 0.68-1.8 1.91-1.8 3.24v31.84c0 1.33 0.71 2.6 1.88 3.26l27.15 16.13c0.57 0.34 1.21 0.51 1.81 0.51 0.66 0 1.3-0.2 1.9-0.56l27.23-16.48c1.17-0.69 1.91-1.92 1.91-3.25v-31.42c0-1.3-0.65-2.53-1.32-3.24zm-27.17-9.62 20.8 12.18-8.44 5.18-12.36-7.66v-9.7zm-5.35 0.17v9.45l-11.61 7.54-8.38-4.67 19.99-12.32zm-22.69 16.85 8.19 5.04v14.4l-8.19 5.1v-24.54zm23.43 40.24-20.62-12.3 7.88-4.95 12.74 7.89v9.36zm1.72-14.4-11.61-7.54v-12.7l11.67-7.71 12.3 7.89v13.06l-12.36 7zm2.83 13.86v-8.96l11.95-7.19 7.83 4.7-19.78 11.45zm22.97-15.55-7.82-5v-14.14l7.82-4.87v24.01z" fill="url(#paint1_radial_102_2313)"/>
  <path d="m124.5 129.7c2.46 0 2.83-1.89 2.83-3.04v-9.17c0-1.66-0.93-2.76-2.86-2.76-2.12 0-2.88 1.3-2.88 2.85v9.11c0 1.89 1.1 3.01 2.91 3.01z" fill="url(#paint2_radial_102_2313)"/>
  <path d="m101.8 135.3c0.63 1.2 1.61 1.71 2.68 1.71 1.72 0 2.79-1.39 2.79-2.8 0-0.54-0.17-1.1-0.45-1.61l-5.36-9.18c-0.66-0.92-1.47-1.34-2.44-1.34-1.65 0-2.82 1.39-2.82 2.92 0 0.56 0.17 1.18 0.48 1.8l5.12 8.5z" fill="url(#paint3_radial_102_2313)"/>
  <path d="m77.29 146.1 9.18 5.38c0.54 0.31 1.14 0.45 1.68 0.45 1.76 0 2.57-1.53 2.57-2.8 0-1.03-0.51-2.01-1.55-2.66l-8.19-5.09c-0.54-0.31-1.11-0.48-1.65-0.48-2.21 0-3.28 2.1-3.28 3.38 0 0.77 0.36 1.39 1.24 1.82z" fill="url(#paint4_radial_102_2313)"/>
  <path d="m72.56 172.9h10.52c2.02 0 2.81-1.53 2.81-2.83 0-1.47-1.13-2.52-2.78-2.52h-10.4c-1.98 0-3.08 1.19-3.08 2.72 0 1.44 0.99 2.63 2.93 2.63z" fill="url(#paint5_radial_102_2313)"/>
  <path d="m78.99 198.6c0.54 0.31 1.05 0.4 1.62 0.4 0.54 0 1.11-0.17 1.71-0.54l7.05-4.55c1.27-0.75 1.64-1.8 1.64-2.77 0-1.47-1.27-2.55-2.58-2.55-0.65 0-1.19 0.17-1.91 0.6l-8.74 5.63c-0.66 0.51-1.26 1.38-1.26 2.29 0 0.81 0.8 1.29 2.47 1.49z" fill="url(#paint6_radial_102_2313)"/>
  <path d="m97.97 218.2c0.49 0.26 0.97 0.37 1.45 0.37 1.16 0 2.22-0.66 2.82-1.93l4.54-8.38c0.36-0.66 0.53-1.25 0.53-1.82 0-1.56-1.5-2.59-2.9-2.59-1.07 0-2.11 0.57-2.77 1.84l-4.78 8.61c-0.37 0.59-0.54 1.19-0.54 1.72 0 0.84 0.54 1.64 1.65 2.18z" fill="url(#paint7_radial_102_2313)"/>
  <path d="m124.4 225.9c2.03 0 2.91-1.42 2.91-3v-10.16c0-1.94-1.47-2.69-2.83-2.69-1.72 0-2.89 1.23-2.89 2.75v10.1c0 1.78 0.91 3 2.81 3z" fill="url(#paint8_radial_102_2313)"/>
  <path d="m147.3 216.1c0.86 1.52 1.84 2.32 3.08 2.32 1.59 0 2.76-1.23 2.76-2.6 0-0.66-0.23-1.36-0.71-2.17l-4.79-8.61c-0.81-1.09-1.73-1.51-2.7-1.51-1.59 0-2.56 1.37-2.56 2.75 0 0.65 0.22 1.4 0.65 2.11l4.27 7.71z" fill="url(#paint9_radial_102_2313)"/>
  <path d="m168.9 198.9c0.66 0.31 1.25 0.48 1.82 0.48 1.72 0 2.53-1.65 2.05-3.54-0.17-0.7-0.71-1.51-1.78-2.13l-8.19-4.54c-0.65-0.43-1.31-0.6-1.91-0.6-1.72 0-2.7 1.63-2.47 3.15 0.11 0.88 0.65 1.79 1.81 2.48l8.67 4.7z" fill="url(#paint10_radial_102_2313)"/>
  <path d="m166.8 172.9h9.57c1.97 0 2.63-1.79 2.63-2.83 0-1.47-1.27-2.55-2.86-2.55h-9.51c-1.89 0-2.76 1.53-2.76 2.8 0 1.47 1.07 2.58 2.93 2.58z" fill="url(#paint11_radial_102_2313)"/>
  <path d="m161 151.9c0.81 0 1.62-0.31 2.47-1.02l7.82-5.1c0.98-0.65 1.41-1.52 1.41-2.39 0-1.59-1.33-2.72-2.73-2.72-0.81 0-1.62 0.31-2.48 1.02l-7.33 5.09c-1.17 0.72-1.7 1.69-1.7 2.65 0 1.34 1.1 2.47 2.54 2.47z" fill="url(#paint12_radial_102_2313)"/>
  <path d="m145.1 136.9c1.36 0 2.33-0.81 3.09-2.34l4.48-7.9c0.37-0.65 0.54-1.27 0.54-1.84 0-1.43-1.31-2.46-2.7-2.46-1.27 0-2.43 0.86-3.28 2.52l-4.27 7.71c-0.42 0.71-0.59 1.4-0.59 2.02 0 1.33 1.16 2.29 2.73 2.29z" fill="url(#paint13_radial_102_2313)"/>
  <defs>
    <radialGradient id="paint0_radial_102_2313" cx="0" cy="0" r="1" gradientTransform="translate(125 124.7) scale(186.5)" gradientUnits="userSpaceOnUse">
      <stop stop-color="#00BAFF" offset="0"/>
      <stop stop-color="#0082D1" offset=".2083"/>
      <stop stop-color="#0058AC" offset=".375"/>
      <stop stop-color="#002C82" offset="1"/>
    </radialGradient>
    <radialGradient id="paint1_radial_102_2313" cx="0" cy="0" r="1" gradientTransform="translate(124.6 169.9) scale(36.29)" gradientUnits="userSpaceOnUse">
      <stop stop-color="#00BAFF" offset="0"/>
      <stop stop-color="#0082D1" offset=".2083"/>
      <stop stop-color="#0058AC" offset=".375"/>
      <stop stop-color="#002C82" offset="1"/>
    </radialGradient>
    <radialGradient id="paint2_radial_102_2313" cx="0" cy="0" r="1" gradientTransform="translate(124.5 122.2) scale(7.572)" gradientUnits="userSpaceOnUse">
      <stop stop-color="#00BAFF" offset="0"/>
      <stop stop-color="#0082D1" offset=".2083"/>
      <stop stop-color="#0058AC" offset=".375"/>
      <stop stop-color="#002C82" offset="1"/>
    </radialGradient>
    <radialGradient id="paint3_radial_102_2313" cx="0" cy="0" r="1" gradientTransform="translate(101.8 129.6) scale(10.81)" gradientUnits="userSpaceOnUse">
      <stop stop-color="#00BAFF" offset="0"/>
      <stop stop-color="#0082D1" offset=".2083"/>
      <stop stop-color="#0058AC" offset=".375"/>
      <stop stop-color="#002C82" offset="1"/>
    </radialGradient>
    <radialGradient id="paint4_radial_102_2313" cx="0" cy="0" r="1" gradientTransform="translate(83.38 146.5) scale(9.205)" gradientUnits="userSpaceOnUse">
      <stop stop-color="#00BAFF" offset="0"/>
      <stop stop-color="#0082D1" offset=".2083"/>
      <stop stop-color="#0058AC" offset=".375"/>
      <stop stop-color="#002C82" offset="1"/>
    </radialGradient>
    <radialGradient id="paint5_radial_102_2313" cx="0" cy="0" r="1" gradientTransform="translate(77.76 170.2) scale(8.219)" gradientUnits="userSpaceOnUse">
      <stop stop-color="#00BAFF" offset="0"/>
      <stop stop-color="#0082D1" offset=".2083"/>
      <stop stop-color="#0058AC" offset=".375"/>
      <stop stop-color="#002C82" offset="1"/>
    </radialGradient>
    <radialGradient id="paint6_radial_102_2313" cx="0" cy="0" r="1" gradientTransform="translate(83.77 194) scale(9.412)" gradientUnits="userSpaceOnUse">
      <stop stop-color="#00BAFF" offset="0"/>
      <stop stop-color="#0082D1" offset=".2083"/>
      <stop stop-color="#0058AC" offset=".375"/>
      <stop stop-color="#002C82" offset="1"/>
    </radialGradient>
    <radialGradient id="paint7_radial_102_2313" cx="0" cy="0" r="1" gradientTransform="translate(101.8 211.3) scale(10.26)" gradientUnits="userSpaceOnUse">
      <stop stop-color="#00BAFF" offset="0"/>
      <stop stop-color="#0082D1" offset=".2083"/>
      <stop stop-color="#0058AC" offset=".375"/>
      <stop stop-color="#002C82" offset="1"/>
    </radialGradient>
    <radialGradient id="paint8_radial_102_2313" cx="0" cy="0" r="1" gradientTransform="translate(124.5 218) scale(8.112)" gradientUnits="userSpaceOnUse">
      <stop stop-color="#00BAFF" offset="0"/>
      <stop stop-color="#0082D1" offset=".2083"/>
      <stop stop-color="#0058AC" offset=".375"/>
      <stop stop-color="#002C82" offset="1"/>
    </radialGradient>
    <radialGradient id="paint9_radial_102_2313" cx="0" cy="0" r="1" gradientTransform="translate(147.7 211) scale(10.12)" gradientUnits="userSpaceOnUse">
      <stop stop-color="#00BAFF" offset="0"/>
      <stop stop-color="#0082D1" offset=".2083"/>
      <stop stop-color="#0058AC" offset=".375"/>
      <stop stop-color="#002C82" offset="1"/>
    </radialGradient>
    <radialGradient id="paint10_radial_102_2313" cx="0" cy="0" r="1" gradientTransform="translate(165.7 194) scale(9.292)" gradientUnits="userSpaceOnUse">
      <stop stop-color="#00BAFF" offset="0"/>
      <stop stop-color="#0082D1" offset=".2083"/>
      <stop stop-color="#0058AC" offset=".375"/>
      <stop stop-color="#002C82" offset="1"/>
    </radialGradient>
    <radialGradient id="paint11_radial_102_2313" cx="0" cy="0" r="1" gradientTransform="translate(171.4 170.5) scale(7.603)" gradientUnits="userSpaceOnUse">
      <stop stop-color="#00BAFF" offset="0"/>
      <stop stop-color="#0082D1" offset=".2083"/>
      <stop stop-color="#0058AC" offset=".375"/>
      <stop stop-color="#002C82" offset="1"/>
    </radialGradient>
    <radialGradient id="paint12_radial_102_2313" cx="0" cy="0" r="1" gradientTransform="translate(165.6 146.2) scale(9.205)" gradientUnits="userSpaceOnUse">
      <stop stop-color="#00BAFF" offset="0"/>
      <stop stop-color="#0082D1" offset=".2083"/>
      <stop stop-color="#0058AC" offset=".375"/>
      <stop stop-color="#002C82" offset="1"/>
    </radialGradient>
    <radialGradient id="paint13_radial_102_2313" cx="0" cy="0" r="1" gradientTransform="translate(147.8 129.7) scale(10.26)" gradientUnits="userSpaceOnUse">
      <stop stop-color="#00BAFF" offset="0"/>
      <stop stop-color="#0082D1" offset=".2083"/>
      <stop stop-color="#0058AC" offset=".375"/>
      <stop stop-color="#002C82" offset="1"/>
    </radialGradient>
  </defs>
</svg>